<svg width="400" height="300" viewBox="0 0 400 300" xmlns="http://www.w3.org/2000/svg">
  <defs>
    <linearGradient id="studioGradient" x1="0%" y1="0%" x2="100%" y2="100%">
      <stop offset="0%" style="stop-color:#667eea;stop-opacity:1" />
      <stop offset="100%" style="stop-color:#764ba2;stop-opacity:1" />
    </linearGradient>
    <linearGradient id="creativeGradient" x1="0%" y1="0%" x2="100%" y2="0%">
      <stop offset="0%" style="stop-color:#fa709a;stop-opacity:1" />
      <stop offset="100%" style="stop-color:#fee140;stop-opacity:1" />
    </linearGradient>
    <linearGradient id="toolGradient" x1="0%" y1="0%" x2="100%" y2="100%">
      <stop offset="0%" style="stop-color:#4facfe;stop-opacity:1" />
      <stop offset="100%" style="stop-color:#00f2fe;stop-opacity:1" />
    </linearGradient>
  </defs>
  
  <!-- Background -->
  <rect width="400" height="300" fill="#f8fafc"/>
  
  <!-- Phone Frame -->
  <rect x="50" y="20" width="300" height="260" rx="25" ry="25" fill="#1a202c" stroke="#2d3748" stroke-width="2"/>
  <rect x="60" y="40" width="280" height="220" rx="15" ry="15" fill="#ffffff"/>
  
  <!-- Header -->
  <rect x="60" y="40" width="280" height="45" rx="15" ry="15" fill="url(#studioGradient)"/>
  <text x="200" y="67" font-family="Arial, sans-serif" font-size="16" font-weight="bold" text-anchor="middle" fill="#ffffff">CreativeStudio</text>
  
  <!-- Menu Icon -->
  <g transform="translate(80, 55)">
    <rect x="0" y="0" width="12" height="2" fill="#ffffff"/>
    <rect x="0" y="5" width="12" height="2" fill="#ffffff"/>
    <rect x="0" y="10" width="12" height="2" fill="#ffffff"/>
  </g>
  
  <!-- Profile Icon -->
  <circle cx="310" cy="62" r="10" fill="#ffffff" opacity="0.9"/>
  <text x="310" y="67" font-family="Arial, sans-serif" font-size="10" text-anchor="middle" fill="#667eea">👤</text>
  
  <!-- Main Canvas Area -->
  <rect x="70" y="95" width="260" height="120" rx="8" ry="8" fill="#f7fafc" stroke="#e2e8f0" stroke-width="1"/>
  
  <!-- Canvas Content -->
  <rect x="75" y="100" width="250" height="110" rx="5" ry="5" fill="#ffffff"/>
  
  <!-- Drawing/Design Elements -->
  <!-- Geometric shapes -->
  <circle cx="120" cy="130" r="15" fill="url(#creativeGradient)" opacity="0.8"/>
  <rect x="160" y="115" width="30" height="30" rx="5" ry="5" fill="url(#toolGradient)" opacity="0.8"/>
  <polygon points="220,120 240,120 230,140" fill="#9f7aea" opacity="0.8"/>
  
  <!-- Brush strokes -->
  <path d="M100 160 Q120 150 140 165 Q160 180 180 170" stroke="#fa709a" stroke-width="3" fill="none" opacity="0.7"/>
  <path d="M200 150 Q220 140 240 155 Q260 170 280 160" stroke="#4facfe" stroke-width="2" fill="none" opacity="0.7"/>
  
  <!-- Text elements -->
  <text x="150" y="185" font-family="Arial, sans-serif" font-size="12" text-anchor="middle" fill="#4a5568">Creative Design</text>
  <text x="220" y="200" font-family="Arial, sans-serif" font-size="8" text-anchor="middle" fill="#718096">Made with ❤️</text>
  
  <!-- Tool Palette -->
  <g transform="translate(70, 225)">
    <rect x="0" y="0" width="260" height="30" rx="5" ry="5" fill="#f7fafc" stroke="#e2e8f0" stroke-width="1"/>
    
    <!-- Brush Tool -->
    <circle cx="20" cy="15" r="10" fill="url(#creativeGradient)"/>
    <path d="M15 10 L20 5 L25 10 L20 20 Z" fill="#ffffff"/>
    
    <!-- Pen Tool -->
    <circle cx="50" cy="15" r="10" fill="#e2e8f0"/>
    <path d="M45 10 L50 5 L55 10 L50 20 Z" fill="#4a5568"/>
    
    <!-- Shape Tool -->
    <circle cx="80" cy="15" r="10" fill="#e2e8f0"/>
    <rect x="75" y="10" width="10" height="10" fill="#4a5568"/>
    
    <!-- Text Tool -->
    <circle cx="110" cy="15" r="10" fill="#e2e8f0"/>
    <text x="110" y="18" font-family="Arial, sans-serif" font-size="8" text-anchor="middle" fill="#4a5568">T</text>
    
    <!-- Color Palette -->
    <circle cx="150" cy="15" r="6" fill="#f56565"/>
    <circle cx="165" cy="15" r="6" fill="#4facfe"/>
    <circle cx="180" cy="15" r="6" fill="#48bb78"/>
    <circle cx="195" cy="15" r="6" fill="#fee140"/>
    <circle cx="210" cy="15" r="6" fill="#9f7aea"/>
    
    <!-- More colors indicator -->
    <circle cx="225" cy="15" r="6" fill="#e2e8f0" stroke="#cbd5e0" stroke-width="1"/>
    <text x="225" y="18" font-family="Arial, sans-serif" font-size="6" text-anchor="middle" fill="#718096">+</text>
    
    <!-- Undo/Redo -->
    <circle cx="245" cy="8" r="5" fill="#e2e8f0"/>
    <path d="M242 8 L245 5 L248 8" stroke="#4a5568" stroke-width="1" fill="none"/>
    
    <circle cx="245" cy="22" r="5" fill="#e2e8f0"/>
    <path d="M248 22 L245 25 L242 22" stroke="#4a5568" stroke-width="1" fill="none"/>
  </g>
  
  <!-- Layer Panel -->
  <g transform="translate(350, 95)">
    <rect x="0" y="0" width="45" height="120" rx="5" ry="5" fill="#f7fafc" stroke="#e2e8f0" stroke-width="1"/>
    <text x="22" y="15" font-family="Arial, sans-serif" font-size="8" text-anchor="middle" fill="#4a5568">Layers</text>
    
    <!-- Layer 1 -->
    <rect x="5" y="20" width="35" height="15" rx="3" ry="3" fill="#4facfe" opacity="0.8"/>
    <circle cx="10" cy="27" r="2" fill="#ffffff"/>
    <text x="25" y="30" font-family="Arial, sans-serif" font-size="6" text-anchor="middle" fill="#ffffff">Background</text>
    
    <!-- Layer 2 -->
    <rect x="5" y="40" width="35" height="15" rx="3" ry="3" fill="#fa709a" opacity="0.8"/>
    <circle cx="10" cy="47" r="2" fill="#ffffff"/>
    <text x="25" y="50" font-family="Arial, sans-serif" font-size="6" text-anchor="middle" fill="#ffffff">Shapes</text>
    
    <!-- Layer 3 -->
    <rect x="5" y="60" width="35" height="15" rx="3" ry="3" fill="#48bb78" opacity="0.8"/>
    <circle cx="10" cy="67" r="2" fill="#ffffff"/>
    <text x="25" y="70" font-family="Arial, sans-serif" font-size="6" text-anchor="middle" fill="#ffffff">Text</text>
    
    <!-- Layer 4 -->
    <rect x="5" y="80" width="35" height="15" rx="3" ry="3" fill="#fee140" opacity="0.8"/>
    <circle cx="10" cy="87" r="2" fill="#744210"/>
    <text x="25" y="90" font-family="Arial, sans-serif" font-size="6" text-anchor="middle" fill="#744210">Effects</text>
    
    <!-- Add Layer -->
    <rect x="15" y="100" width="15" height="10" rx="5" ry="5" fill="url(#toolGradient)"/>
    <text x="22" y="107" font-family="Arial, sans-serif" font-size="8" text-anchor="middle" fill="#ffffff">+</text>
  </g>
  
  <!-- Project Templates -->
  <g transform="translate(70, 85)">
    <text x="0" y="0" font-family="Arial, sans-serif" font-size="10" font-weight="bold" fill="#4a5568">Templates</text>
    
    <!-- Template 1 -->
    <rect x="200" y="-5" width="20" height="15" rx="3" ry="3" fill="#e2e8f0" stroke="#cbd5e0" stroke-width="1"/>
    <text x="210" y="4" font-family="Arial, sans-serif" font-size="6" text-anchor="middle" fill="#4a5568">📱 Post</text>
    
    <!-- Template 2 -->
    <rect x="225" y="-5" width="20" height="15" rx="3" ry="3" fill="#e2e8f0" stroke="#cbd5e0" stroke-width="1"/>
    <text x="235" y="4" font-family="Arial, sans-serif" font-size="6" text-anchor="middle" fill="#4a5568">📖 Story</text>
    
    <!-- Template 3 -->
    <rect x="250" y="-5" width="20" height="15" rx="3" ry="3" fill="#e2e8f0" stroke="#cbd5e0" stroke-width="1"/>
    <text x="260" y="4" font-family="Arial, sans-serif" font-size="6" text-anchor="middle" fill="#4a5568">🎨 Art</text>
  </g>
  
  <!-- Creative Assets Library -->
  <g transform="translate(320, 40)">
    <!-- Assets Icon -->
    <rect x="0" y="0" width="15" height="15" rx="3" ry="3" fill="#f7fafc" stroke="#e2e8f0" stroke-width="1"/>
    <text x="7" y="9" font-family="Arial, sans-serif" font-size="8" text-anchor="middle" fill="#4a5568">📁</text>
    
    <!-- Notification badge -->
    <circle cx="12" cy="3" r="3" fill="#f56565"/>
    <text x="12" y="5" font-family="Arial, sans-serif" font-size="6" text-anchor="middle" fill="#ffffff">3</text>
  </g>
  
  <!-- Export/Share Options -->
  <g transform="translate(280, 225)">
    <!-- Export Button -->
    <rect x="0" y="5" width="25" height="20" rx="10" ry="10" fill="url(#toolGradient)"/>
    <text x="12" y="17" font-family="Arial, sans-serif" font-size="8" text-anchor="middle" fill="#ffffff">Export</text>
    
    <!-- Share Button -->
    <rect x="30" y="5" width="25" height="20" rx="10" ry="10" fill="#48bb78"/>
    <text x="42" y="17" font-family="Arial, sans-serif" font-size="8" text-anchor="middle" fill="#ffffff">Share</text>
  </g>
  
  <!-- Progress Indicator -->
  <g transform="translate(75, 215)">
    <text x="0" y="0" font-family="Arial, sans-serif" font-size="8" fill="#718096">Auto-save: </text>
    <circle cx="50" cy="-2" r="3" fill="#48bb78">
      <animate attributeName="opacity" values="1;0.3;1" dur="2s" repeatCount="indefinite"/>
    </circle>
    <text x="60" y="0" font-family="Arial, sans-serif" font-size="8" fill="#48bb78">Saved</text>
  </g>
  
  <!-- Creative Tools Floating Menu -->
  <g transform="translate(320, 180)">
    <!-- AI Assistant -->
    <circle cx="0" cy="0" r="8" fill="#9f7aea"/>
    <text x="0" y="3" font-family="Arial, sans-serif" font-size="8" text-anchor="middle" fill="#ffffff">🤖</text>
    
    <!-- Magic Wand -->
    <circle cx="0" cy="20" r="8" fill="#fee140"/>
    <text x="0" y="23" font-family="Arial, sans-serif" font-size="8" text-anchor="middle" fill="#744210">✨</text>
    
    <!-- Filter Effects -->
    <circle cx="0" cy="40" r="8" fill="#fa709a"/>
    <text x="0" y="43" font-family="Arial, sans-serif" font-size="8" text-anchor="middle" fill="#ffffff">🎭</text>
  </g>
  
  <!-- Canvas Zoom Controls -->
  <g transform="translate(300, 120)">
    <!-- Zoom In -->
    <circle cx="0" cy="0" r="6" fill="#e2e8f0" stroke="#cbd5e0" stroke-width="1"/>
    <text x="0" y="2" font-family="Arial, sans-serif" font-size="8" text-anchor="middle" fill="#4a5568">+</text>
    
    <!-- Zoom Out -->
    <circle cx="0" cy="15" r="6" fill="#e2e8f0" stroke="#cbd5e0" stroke-width="1"/>
    <text x="0" y="17" font-family="Arial, sans-serif" font-size="8" text-anchor="middle" fill="#4a5568">-</text>
    
    <!-- Fit to Screen -->
    <circle cx="0" cy="30" r="6" fill="#e2e8f0" stroke="#cbd5e0" stroke-width="1"/>
    <rect x="-3" y="27" width="6" height="6" fill="none" stroke="#4a5568" stroke-width="1"/>
  </g>
  
  <!-- Project Info -->
  <g transform="translate(75, 75)">
    <text x="0" y="0" font-family="Arial, sans-serif" font-size="8" fill="#718096">Project: </text>
    <text x="40" y="0" font-family="Arial, sans-serif" font-size="8" font-weight="bold" fill="#4a5568">My Artwork</text>
    <text x="120" y="0" font-family="Arial, sans-serif" font-size="8" fill="#718096">• 1080x1080px</text>
  </g>
  
  <!-- Collaboration Indicators -->
  <g transform="translate(250, 75)">
    <!-- Collaborator 1 -->
    <circle cx="0" cy="0" r="5" fill="#4facfe"/>
    <text x="0" y="2" font-family="Arial, sans-serif" font-size="6" text-anchor="middle" fill="#ffffff">A</text>
    
    <!-- Collaborator 2 -->
    <circle cx="12" cy="0" r="5" fill="#fa709a"/>
    <text x="12" y="2" font-family="Arial, sans-serif" font-size="6" text-anchor="middle" fill="#ffffff">B</text>
    
    <!-- Add Collaborator -->
    <circle cx="24" cy="0" r="5" fill="#e2e8f0" stroke="#cbd5e0" stroke-width="1"/>
    <text x="24" y="2" font-family="Arial, sans-serif" font-size="6" text-anchor="middle" fill="#718096">+</text>
  </g>
</svg>