<svg width="300" height="200" viewBox="0 0 300 200" fill="none" xmlns="http://www.w3.org/2000/svg">
  <!-- 背景 -->
  <rect width="300" height="200" rx="12" fill="#f0f9ff"/>
  
  <!-- 手机框架 -->
  <rect x="100" y="20" width="100" height="160" rx="12" fill="white" stroke="#e5e7eb" stroke-width="2"/>
  <rect x="110" y="35" width="80" height="130" rx="6" fill="#fafafa"/>
  
  <!-- 工具图标网格 -->
  <rect x="115" y="45" width="15" height="15" rx="3" fill="#3b82f6"/>
  <rect x="135" y="45" width="15" height="15" rx="3" fill="#10b981"/>
  <rect x="155" y="45" width="15" height="15" rx="3" fill="#f59e0b"/>
  <rect x="175" y="45" width="15" height="15" rx="3" fill="#ef4444"/>
  
  <rect x="115" y="70" width="15" height="15" rx="3" fill="#8b5cf6"/>
  <rect x="135" y="70" width="15" height="15" rx="3" fill="#06b6d4"/>
  <rect x="155" y="70" width="15" height="15" rx="3" fill="#84cc16"/>
  <rect x="175" y="70" width="15" height="15" rx="3" fill="#f97316"/>
  
  <!-- 工具名称 -->
  <rect x="115" y="95" width="70" height="4" rx="2" fill="#6b7280"/>
  <rect x="115" y="105" width="50" height="4" rx="2" fill="#9ca3af"/>
  <rect x="115" y="115" width="60" height="4" rx="2" fill="#9ca3af"/>
  
  <!-- 搜索框 -->
  <rect x="115" y="135" width="60" height="12" rx="6" fill="white" stroke="#d1d5db"/>
  <circle cx="170" cy="141" r="4" fill="#6b7280"/>
  
  <!-- 装饰工具图标 -->
  <g transform="translate(30, 60)">
    <rect width="40" height="30" rx="4" fill="white" stroke="#e5e7eb"/>
    <path d="M10 10h20M10 15h15M10 20h18" stroke="#3b82f6" stroke-width="1"/>
  </g>
  
  <g transform="translate(230, 100)">
    <rect width="40" height="30" rx="4" fill="white" stroke="#e5e7eb"/>
    <circle cx="20" cy="15" r="8" fill="none" stroke="#10b981" stroke-width="2"/>
    <path d="M15 15l3 3 6-6" stroke="#10b981" stroke-width="2" fill="none"/>
  </g>
</svg>