<svg width="300" height="200" viewBox="0 0 300 200" fill="none" xmlns="http://www.w3.org/2000/svg">
  <!-- 背景 -->
  <rect width="300" height="200" rx="12" fill="#f8fafc"/>
  
  <!-- 手机框架 -->
  <rect x="100" y="20" width="100" height="160" rx="12" fill="white" stroke="#e5e7eb" stroke-width="2"/>
  <rect x="110" y="35" width="80" height="130" rx="6" fill="#fafafa"/>
  
  <!-- 顶部导航 -->
  <rect x="115" y="40" width="70" height="8" rx="4" fill="#3b82f6"/>
  
  <!-- 商品卡片 -->
  <rect x="115" y="55" width="30" height="25" rx="4" fill="#e5e7eb"/>
  <rect x="150" y="55" width="35" height="8" rx="2" fill="#374151"/>
  <rect x="150" y="67" width="25" height="6" rx="2" fill="#ef4444"/>
  
  <rect x="115" y="90" width="30" height="25" rx="4" fill="#e5e7eb"/>
  <rect x="150" y="90" width="35" height="8" rx="2" fill="#374151"/>
  <rect x="150" y="102" width="25" height="6" rx="2" fill="#ef4444"/>
  
  <rect x="115" y="125" width="30" height="25" rx="4" fill="#e5e7eb"/>
  <rect x="150" y="125" width="35" height="8" rx="2" fill="#374151"/>
  <rect x="150" y="137" width="25" height="6" rx="2" fill="#ef4444"/>
  
  <!-- 购物车图标 -->
  <circle cx="175" cy="155" r="8" fill="#10b981"/>
  <path d="M170 155h10M175 150v10" stroke="white" stroke-width="2"/>
  
  <!-- 装饰元素 -->
  <circle cx="50" cy="50" r="3" fill="#f59e0b" opacity="0.6"/>
  <circle cx="250" cy="80" r="4" fill="#3b82f6" opacity="0.6"/>
  <circle cx="60" cy="150" r="2" fill="#10b981" opacity="0.6"/>
  <circle cx="240" cy="140" r="3" fill="#ef4444" opacity="0.6"/>
</svg>