<svg width="300" height="200" viewBox="0 0 300 200" fill="none" xmlns="http://www.w3.org/2000/svg">
  <!-- 背景 -->
  <rect width="300" height="200" rx="12" fill="#fef3c7"/>
  
  <!-- 手机框架 -->
  <rect x="100" y="20" width="100" height="160" rx="12" fill="white" stroke="#e5e7eb" stroke-width="2"/>
  <rect x="110" y="35" width="80" height="130" rx="6" fill="#fffbeb"/>
  
  <!-- 课程标题 -->
  <rect x="115" y="45" width="70" height="8" rx="4" fill="#f59e0b"/>
  
  <!-- 视频播放区域 -->
  <rect x="115" y="60" width="70" height="40" rx="6" fill="#374151"/>
  <circle cx="150" cy="80" r="8" fill="white" opacity="0.9"/>
  <path d="M147 77l6 3-6 3v-6z" fill="#374151"/>
  
  <!-- 课程信息 -->
  <rect x="115" y="110" width="50" height="4" rx="2" fill="#6b7280"/>
  <rect x="115" y="118" width="60" height="4" rx="2" fill="#9ca3af"/>
  <rect x="115" y="126" width="40" height="4" rx="2" fill="#9ca3af"/>
  
  <!-- 进度条 -->
  <rect x="115" y="140" width="70" height="4" rx="2" fill="#e5e7eb"/>
  <rect x="115" y="140" width="35" height="4" rx="2" fill="#10b981"/>
  
  <!-- 按钮 -->
  <rect x="115" y="150" width="30" height="10" rx="5" fill="#3b82f6"/>
  <rect x="150" y="150" width="35" height="10" rx="5" fill="#10b981"/>
  
  <!-- 装饰书本图标 -->
  <g transform="translate(40, 70)">
    <rect width="30" height="25" rx="2" fill="white" stroke="#f59e0b" stroke-width="2"/>
    <rect x="5" y="5" width="20" height="2" rx="1" fill="#f59e0b"/>
    <rect x="5" y="10" width="15" height="2" rx="1" fill="#d97706"/>
    <rect x="5" y="15" width="18" height="2" rx="1" fill="#d97706"/>
  </g>
  
  <!-- 装饰毕业帽 -->
  <g transform="translate(230, 50)">
    <rect x="10" y="15" width="20" height="3" rx="1" fill="#1f2937"/>
    <rect x="5" y="12" width="30" height="6" rx="3" fill="#374151"/>
    <circle cx="20" cy="15" r="2" fill="#f59e0b"/>
  </g>
  
  <!-- 装饰元素 -->
  <circle cx="60" cy="40" r="2" fill="#3b82f6" opacity="0.6"/>
  <circle cx="240" cy="120" r="3" fill="#10b981" opacity="0.6"/>
  <circle cx="50" cy="160" r="2" fill="#f59e0b" opacity="0.6"/>
</svg>