<svg width="150" height="150" viewBox="0 0 150 150" fill="none" xmlns="http://www.w3.org/2000/svg">
  <!-- 背景 -->
  <rect width="150" height="150" rx="12" fill="white" stroke="#e5e7eb" stroke-width="2"/>
  
  <!-- 二维码模拟 -->
  <!-- 左上角定位点 -->
  <rect x="15" y="15" width="30" height="30" rx="3" fill="#1f2937"/>
  <rect x="21" y="21" width="18" height="18" rx="2" fill="white"/>
  <rect x="27" y="27" width="6" height="6" rx="1" fill="#1f2937"/>
  
  <!-- 右上角定位点 -->
  <rect x="105" y="15" width="30" height="30" rx="3" fill="#1f2937"/>
  <rect x="111" y="21" width="18" height="18" rx="2" fill="white"/>
  <rect x="117" y="27" width="6" height="6" rx="1" fill="#1f2937"/>
  
  <!-- 左下角定位点 -->
  <rect x="15" y="105" width="30" height="30" rx="3" fill="#1f2937"/>
  <rect x="21" y="111" width="18" height="18" rx="2" fill="white"/>
  <rect x="27" y="117" width="6" height="6" rx="1" fill="#1f2937"/>
  
  <!-- 数据点模拟 -->
  <rect x="60" y="15" width="6" height="6" rx="1" fill="#1f2937"/>
  <rect x="72" y="15" width="6" height="6" rx="1" fill="#1f2937"/>
  <rect x="84" y="15" width="6" height="6" rx="1" fill="#1f2937"/>
  
  <rect x="15" y="60" width="6" height="6" rx="1" fill="#1f2937"/>
  <rect x="15" y="72" width="6" height="6" rx="1" fill="#1f2937"/>
  <rect x="15" y="84" width="6" height="6" rx="1" fill="#1f2937"/>
  
  <rect x="60" y="60" width="6" height="6" rx="1" fill="#1f2937"/>
  <rect x="72" y="60" width="6" height="6" rx="1" fill="#1f2937"/>
  <rect x="84" y="72" width="6" height="6" rx="1" fill="#1f2937"/>
  <rect x="96" y="60" width="6" height="6" rx="1" fill="#1f2937"/>
  
  <rect x="60" y="84" width="6" height="6" rx="1" fill="#1f2937"/>
  <rect x="72" y="96" width="6" height="6" rx="1" fill="#1f2937"/>
  <rect x="84" y="84" width="6" height="6" rx="1" fill="#1f2937"/>
  <rect x="96" y="96" width="6" height="6" rx="1" fill="#1f2937"/>
  
  <rect x="108" y="60" width="6" height="6" rx="1" fill="#1f2937"/>
  <rect x="120" y="72" width="6" height="6" rx="1" fill="#1f2937"/>
  <rect x="132" y="60" width="6" height="6" rx="1" fill="#1f2937"/>
  
  <rect x="60" y="108" width="6" height="6" rx="1" fill="#1f2937"/>
  <rect x="72" y="120" width="6" height="6" rx="1" fill="#1f2937"/>
  <rect x="84" y="108" width="6" height="6" rx="1" fill="#1f2937"/>
  <rect x="96" y="120" width="6" height="6" rx="1" fill="#1f2937"/>
  <rect x="108" y="108" width="6" height="6" rx="1" fill="#1f2937"/>
  <rect x="120" y="120" width="6" height="6" rx="1" fill="#1f2937"/>
  <rect x="132" y="108" width="6" height="6" rx="1" fill="#1f2937"/>
  
  <!-- 中心小程序图标 -->
  <rect x="66" y="66" width="18" height="18" rx="3" fill="#3b82f6"/>
  <path d="M72 72h6M75 69v12" stroke="white" stroke-width="1.5"/>
</svg>